<svg width="25" height="25" viewBox="0 0 25 25" fill="none" xmlns="http://www.w3.org/2000/svg">
<path d="M2.5 6.95166L9.41302 10.8686C11.9616 12.3127 13.0384 12.3127 15.587 10.8686L22.5 6.95166" stroke="#046502" stroke-width="1.5" stroke-linejoin="round"/>
<path d="M2.51577 14.4273C2.58114 17.4929 2.61383 19.0256 3.74496 20.1611C4.87608 21.2965 6.45033 21.336 9.59883 21.4151C11.5393 21.4639 13.4607 21.4639 15.4012 21.4151C18.5497 21.336 20.1239 21.2965 21.2551 20.1611C22.3862 19.0256 22.4189 17.4929 22.4842 14.4273C22.5053 13.4416 22.5053 12.4618 22.4842 11.4761C22.4189 8.41052 22.3862 6.87775 21.2551 5.74232C20.1239 4.60689 18.5497 4.56734 15.4012 4.48823C13.4607 4.43947 11.5393 4.43947 9.59882 4.48822C6.45033 4.56732 4.87608 4.60687 3.74495 5.74231C2.61382 6.87774 2.58114 8.41051 2.51576 11.4761C2.49474 12.4618 2.49475 13.4416 2.51577 14.4273Z" stroke="#046502" stroke-width="1.5" stroke-linejoin="round"/>
</svg>
