<svg width="69" height="145" viewBox="0 0 69 145" fill="none" xmlns="http://www.w3.org/2000/svg">
<path d="M0.0543365 35.6024C0.0543365 44.913 3.64945 53.8422 10.0488 60.4258C16.4481 67.0094 25.1275 70.708 34.1776 70.708C43.2276 70.708 51.907 67.0094 58.3063 60.4258C64.7057 53.8422 68.3008 44.913 68.3008 35.6024L34.1776 35.6024H0.0543365Z" fill="#09F104"/>
<path d="M68.2992 109.391C68.2992 100.08 64.7041 91.1509 58.3047 84.5673C51.9054 77.9838 43.226 74.2852 34.176 74.2852C25.1259 74.2852 16.4465 77.9838 10.0472 84.5673C3.64785 91.1509 0.0527357 100.08 0.0527344 109.391L34.176 109.391H68.2992Z" fill="black"/>
</svg>
