<svg width="24" height="25" viewBox="0 0 24 25" fill="none" xmlns="http://www.w3.org/2000/svg">
<path d="M9.15826 6.66389L8.7556 5.75791C8.49232 5.16554 8.36068 4.86934 8.16381 4.64267C7.91708 4.3586 7.59547 4.1496 7.23568 4.03951C6.94859 3.95166 6.62446 3.95166 5.97621 3.95166C5.02791 3.95166 4.55376 3.95166 4.15573 4.13395C3.68687 4.34868 3.26344 4.81494 3.09473 5.30226C2.95151 5.71595 2.99254 6.14109 3.07458 6.99136C3.94791 16.0419 8.90982 21.0038 17.9603 21.8771C18.8106 21.9592 19.2358 22.0002 19.6494 21.857C20.1368 21.6883 20.603 21.2648 20.8178 20.796C21 20.3979 21 19.9238 21 18.9755C21 18.3272 21 18.0031 20.9122 17.716C20.8021 17.3562 20.5931 17.0346 20.309 16.7879C20.0824 16.591 19.7862 16.4594 19.1938 16.1961L18.2878 15.7934C17.6463 15.5083 17.3255 15.3658 16.9996 15.3348C16.6876 15.3051 16.3731 15.3489 16.0811 15.4626C15.776 15.5814 15.5064 15.8061 14.967 16.2555C14.4302 16.7029 14.1618 16.9266 13.8338 17.0464C13.543 17.1526 13.1586 17.192 12.8524 17.1468C12.5069 17.0959 12.2424 16.9546 11.7133 16.6718C10.0673 15.7922 9.15953 14.8845 8.27987 13.2384C7.99714 12.7094 7.85578 12.4448 7.80487 12.0994C7.75974 11.7931 7.79908 11.4087 7.9053 11.118C8.02512 10.7899 8.24881 10.5215 8.69619 9.98466C9.14562 9.44534 9.37034 9.17568 9.48915 8.87057C9.60285 8.5786 9.64662 8.26406 9.61695 7.95214C9.58594 7.62618 9.44338 7.30542 9.15826 6.66389Z" stroke="#046502" stroke-width="1.5" stroke-linecap="round"/>
</svg>
