<svg width="40" height="56" viewBox="0 0 40 56" fill="none" xmlns="http://www.w3.org/2000/svg">
<path d="M19.358 55.4939C16.382 55.4939 13.55 54.9419 10.862 53.8379C8.17399 52.6859 5.89398 51.0779 4.02198 49.0139C2.14998 46.9499 0.901985 44.5259 0.277984 41.7419L10.142 38.4299C10.958 40.7339 12.158 42.4859 13.742 43.6859C15.326 44.8379 17.198 45.4139 19.358 45.4139C21.134 45.4139 22.646 45.0779 23.894 44.4059C25.19 43.7339 26.198 42.7979 26.918 41.5979C27.638 40.3499 27.998 38.9099 27.998 37.2779C27.998 35.6459 27.638 34.2539 26.918 33.1019C26.246 31.9019 25.262 30.9899 23.966 30.3659C22.718 29.6939 21.182 29.3579 19.358 29.3579C18.302 29.3579 17.246 29.4779 16.19 29.7179C15.134 29.9579 14.174 30.2939 13.31 30.7259L10.718 25.3259L24.47 10.3499H3.51798V0.989878H36.998V9.62988L22.886 25.6859L23.246 21.1499C26.462 21.1499 29.246 21.8219 31.598 23.1659C33.998 24.4619 35.846 26.2859 37.142 28.6379C38.486 30.9899 39.158 33.7259 39.158 36.8459C39.158 40.3979 38.294 43.5899 36.566 46.4219C34.838 49.2539 32.486 51.4859 29.51 53.1179C26.534 54.7019 23.15 55.4939 19.358 55.4939Z" fill="#A3A3A3"/>
</svg>
