<svg width="38" height="55" viewBox="0 0 38 55" fill="none" xmlns="http://www.w3.org/2000/svg">
<path d="M0.690016 54.6299V45.9899L15.09 31.1579C17.922 28.2299 20.058 25.9259 21.498 24.2459C22.986 22.5179 23.994 21.0779 24.522 19.9259C25.098 18.7739 25.386 17.6459 25.386 16.5419C25.386 14.5739 24.738 13.0379 23.442 11.9339C22.194 10.7819 20.61 10.2059 18.69 10.2059C16.722 10.2059 14.97 10.7819 13.434 11.9339C11.898 13.0379 10.77 14.7419 10.05 17.0459L0.330016 13.8779C0.906016 11.0939 2.10602 8.66988 3.93002 6.60588C5.75402 4.54188 7.96202 2.95788 10.554 1.85388C13.146 0.70188 15.858 0.125881 18.69 0.125881C22.242 0.125881 25.362 0.749881 28.05 1.99788C30.738 3.24588 32.826 4.99788 34.314 7.25388C35.802 9.50988 36.546 12.1499 36.546 15.1739C36.546 17.0939 36.21 18.9899 35.538 20.8619C34.866 22.6859 33.834 24.5579 32.442 26.4779C31.098 28.3499 29.346 30.3899 27.186 32.5979L14.874 45.2699H37.05V54.6299H0.690016Z" fill="#A3A3A3"/>
</svg>
